#tb 0: 1001/24000
#media_type 0: video
#codec_id 0: rawvideo
#dimensions 0: 1920x1080
#sar 0: 1/1
0,          0,          0,        1,  6220800, 0x89daa15e
0,          1,          1,        1,  6220800, 0xcf52e254
0,          2,          2,        1,  6220800, 0x91132c13
0,          3,          3,        1,  6220800, 0x37b8be91
0,          4,          4,        1,  6220800, 0x2b09bafa
0,          5,          5,        1,  6220800, 0x06d79d8d
0,          6,          6,        1,  6220800, 0x8e793c1d
0,          7,          7,        1,  6220800, 0xea0fd885
0,          8,          8,        1,  6220800, 0x7786a2ad
0,          9,          9,        1,  6220800, 0xed4f9dd9
